<svg xmlns="http://www.w3.org/2000/svg"
      class="w-7 h-7"
      viewBox="0 -960 960 960"
      fill="currentColor">
      <path d="M280-80q-33 0-56.5-23.5T200-160q0-33 
      23.5-56.5T280-240q33 0 56.5 23.5T360-160q0 
      33-23.5 56.5T280-80Zm400 0q-33 0-56.5-23.5T600-160q0-33 
      23.5-56.5T680-240q33 0 56.5 23.5T760-160q0 
      33-23.5 56.5T680-80ZM240-720l60 120h360l60-120H240Zm-40-80h560q24 
      0 36 20t2 42L720-560q-12 20-32 30t-42 
      10H320l-40 80h480v80H280q-45 
      0-67.5-37.5T212-480l68-136-120-240H40v-80h120l40 80Z"/>
    </svg>